# xmcd
#
# Track frame offsets:
#	150
#	20760
#	39415
#	56994
#	77353
#	100899
#	115598
#	136535
#	157056
#	175288
#
# Disc length: 2612 seconds
#
# Revision: 0
# Processed by: cddbd v1.5.2PL0 Copyright (c) Steve Scherf et al.
# Submitted via: audiograbber 1.83.01
#
DISCID=780a320a
DTITLE=Shar Baby - My Life
DYEAR=2005
DGENRE=Blues
TTITLE0=Poolroom Blues
TTITLE1=Master Dees
TTITLE2=Don't Want You Hangin Around
TTITLE3=Old Block House
TTITLE4=The World Is On An Even Keel
TTITLE5=Three Strikes You're Out
TTITLE6=Own Mind Blues
TTITLE7=Popcorn And Greenbeans
TTITLE8=Broken Promises
TTITLE9=Washington Street Shuffle
EXTD=
EXTT0=
EXTT1=
EXTT2=
EXTT3=
EXTT4=
EXTT5=
EXTT6=
EXTT7=
EXTT8=
EXTT9=
PLAYORDER=
